<svg id="Layer_1" data-name="Layer 1" xmlns="http://www.w3.org/2000/svg" viewBox="0 0 200 200"><defs><style>.cls-1{fill:#3d3d3c;}</style></defs><path class="cls-1" d="M23.1,177.68h9c5.24,0,8.41,3.11,8.41,7.6v.06c0,5.09-4,7.72-8.88,7.72H27.93v6.59H23.1Zm8.66,11.08c2.42,0,3.83-1.44,3.83-3.33v-.06c0-2.16-1.5-3.32-3.92-3.32H27.93v6.71Z"/><path class="cls-1" d="M44.07,177.68H60.64V182H48.87v4.46H59.23v4.3H48.87v4.61H60.8v4.3H44.07Z"/><path class="cls-1" d="M72.64,177.53h4.45l9.42,22.12H81.46l-2-4.92H70.16l-2,4.92H63.22Zm5.08,12.93-2.92-7.13-2.92,7.13Z"/><path class="cls-1" d="M89.9,177.68h4.46l10.3,13.53V177.68h4.77v22h-4.11l-10.64-14v14H89.9Z"/><path class="cls-1" d="M114.36,190.24V177.68h4.83v12.43c0,3.58,1.79,5.43,4.74,5.43s4.74-1.79,4.74-5.27V177.68h4.84v12.4c0,6.66-3.74,9.92-9.64,9.92S114.36,196.7,114.36,190.24Z"/><path class="cls-1" d="M143.55,182.14h-6.68v-4.46h18.2v4.46h-6.68v17.51h-4.84Z"/><path class="cls-1" d="M156.8,196.45l2.86-3.42a10.1,10.1,0,0,0,6.56,2.67c2,0,3.17-.79,3.17-2.07v-.07c0-1.22-.75-1.85-4.43-2.79-4.42-1.13-7.28-2.35-7.28-6.72V184c0-4,3.2-6.62,7.69-6.62a12.71,12.71,0,0,1,8.16,2.79L171,183.8a10.28,10.28,0,0,0-5.71-2.16c-1.85,0-2.83.84-2.83,1.91v.06c0,1.45,1,1.92,4.74,2.89,4.46,1.16,7,2.77,7,6.59v.07c0,4.36-3.33,6.81-8.06,6.81A14,14,0,0,1,156.8,196.45Z"/><path class="cls-1" d="M133.82,86.61h0c-.4-1-.83-2-1.3-2.92-2-4.83-5.7-14.83-5.7-23.64,0-9.36.9-20.89,1.31-25.69.06-.54.17-2.27.17-2.27,0-.4,0-.81,0-1.22a30.22,30.22,0,1,0-60.43,0,70.77,70.77,0,0,0,1.55,9.57,88,88,0,0,1,1.79,20.65C70.85,67,66.5,77.49,64.07,83c-.59,1.14-1.13,2.32-1.61,3.53h0a38.34,38.34,0,1,0,71.36.11ZM79.11,89.72c1.8-.83,4.24.61,5.45,3.23s.71,5.41-1.09,6.24S79.22,98.57,78,96,77.3,90.55,79.11,89.72Zm7.5,32.88c-3,1.39-7.12-1-9.14-5.42s-1.21-9.07,1.82-10.46,7.12,1,9.14,5.41S89.64,121.2,86.61,122.6ZM96,109c-2,.92-4.68-.68-6-3.56s-.79-6,1.21-6.9,4.69.68,6,3.57S98,108.05,96,109Z"/></svg>