<svg id="Layer_1" data-name="Layer 1" xmlns="http://www.w3.org/2000/svg" viewBox="0 0 200 200"><defs><style>.cls-1{fill:#3d3d3c;}</style></defs><path class="cls-1" d="M54.74,172.12H65.08c6,0,9.68,3.57,9.68,8.74v.07c0,5.86-4.55,8.89-10.22,8.89H60.31v7.59H54.74Zm10,12.75c2.78,0,4.41-1.66,4.41-3.83V181c0-2.49-1.74-3.83-4.52-3.83h-4.3v7.73Z"/><path class="cls-1" d="M77.77,184.84v-.08a13.08,13.08,0,0,1,13.47-13.08c7.81,0,13.41,5.82,13.41,13v.07a13.08,13.08,0,0,1-13.48,13.08C83.37,197.84,77.77,192,77.77,184.84Zm21.06,0v-.08a7.69,7.69,0,0,0-7.66-7.95,7.57,7.57,0,0,0-7.59,7.88v.07a7.68,7.68,0,0,0,7.66,8A7.56,7.56,0,0,0,98.83,184.84Z"/><path class="cls-1" d="M109.6,172.12h11.57c3.21,0,5.71.9,7.37,2.56a7.94,7.94,0,0,1,2.17,5.78v.08a7.87,7.87,0,0,1-5.42,7.84l6.18,9H125l-5.42-8.09h-4.37v8.09H109.6Zm11.21,12.28c2.71,0,4.26-1.44,4.26-3.58v-.07c0-2.38-1.66-3.61-4.37-3.61h-5.53v7.26Z"/><path class="cls-1" d="M135.73,172.12h5.57v11l10.26-11h6.72L148,182.85l10.77,14.56h-6.68l-7.84-10.77-2.93,3v7.73h-5.57Z"/><path class="cls-1" d="M196.39,14.61a2.33,2.33,0,0,0-3.28.25,6.81,6.81,0,0,1-4.65,2.39,11.59,11.59,0,0,0-2.74-8.34c-2-2.55-5.26-3.41-7.74-2-1.85,1-3.53,3.59-2.15,7.46A11.3,11.3,0,0,0,181,20.19a13.72,13.72,0,0,1-1.79.78,14.19,14.19,0,0,1-1.93.52A39.16,39.16,0,0,0,146.21,6.22L65.84,10.84c-7.85,0-16.46,5.06-24.67,11.68a24.35,24.35,0,0,0-10.42-6.15,34.52,34.52,0,0,0-.9,8.9,19,19,0,0,0-5.48-2.68S22,31.67,26.2,36.26C18.11,44.33,13.05,51.57,9.49,53.07l-5.9-1.61L2.8,61s8.5,14.37,39.92,14.4h0c2.88.15,5.78.21,8.65.24,0,0-1.31,25-3.22,33a74.45,74.45,0,0,1-2.78,7.15H56L68.11,88.1s-.84,15.56-2,20.6a75.05,75.05,0,0,1-2.77,7.15H73.92L89.84,79.39c21.26,7.76,34.76,6.35,49.39,3.89,0,0,3.6,14.65,3.5,18.17-.15,5.13-6.59,14.4-6.59,14.4h13.15s4.43-21,4.62-28.16a71,71,0,0,0-.83-7.47c1.82-.51,2.83-.85,2.83-.85s4.87,16.74,4.74,21.29c-.15,5.13-6.59,15.19-6.59,15.19h13.15s2.34-15,3.27-19.95c1.73-9.23.09-19.49.09-19.49,10.41-4.86,14.88-15.52,14.88-31A39.07,39.07,0,0,0,180,25.58l.72-.22a13.43,13.43,0,0,0,5.56-3.47,11.88,11.88,0,0,0,10.32-4A2.33,2.33,0,0,0,196.39,14.61ZM36,44.62A2.65,2.65,0,1,1,38.66,42,2.65,2.65,0,0,1,36,44.62Zm144.2-31.86c-.35-1-.26-1.67,0-1.82a.7.7,0,0,1,.45-.06,2.13,2.13,0,0,1,1.37.9,7.45,7.45,0,0,1,1.81,4.66A7,7,0,0,1,180.21,12.76Z"/></svg>