<svg id="Layer_1" data-name="Layer 1" xmlns="http://www.w3.org/2000/svg" viewBox="0 0 200 200"><defs><style>.cls-1,.cls-2{fill:#3d3d3c;}.cls-2{fill-rule:evenodd;}</style></defs><path class="cls-1" d="M65.4,176.31h4.42L80,189.72V176.31h4.73v21.78H80.67L70.13,184.25v13.84H65.4Z"/><path class="cls-1" d="M89.64,188.76V176.31h4.79v12.32c0,3.55,1.77,5.38,4.69,5.38s4.7-1.77,4.7-5.22V176.31h4.79V188.6c0,6.6-3.7,9.83-9.55,9.83S89.64,195.16,89.64,188.76Z"/><path class="cls-1" d="M118.57,180.73h-6.63v-4.42h18v4.42h-6.62v17.36h-4.79Z"/><path class="cls-1" d="M131.69,194.92l2.83-3.39a10,10,0,0,0,6.51,2.64c2,0,3.14-.78,3.14-2v-.07c0-1.21-.75-1.83-4.39-2.76-4.38-1.12-7.22-2.34-7.22-6.66v-.06c0-3.95,3.18-6.57,7.63-6.57a12.61,12.61,0,0,1,8.08,2.77l-2.49,3.61a10.17,10.17,0,0,0-5.66-2.15c-1.83,0-2.8.84-2.8,1.9v.06c0,1.43.94,1.9,4.7,2.87,4.42,1.15,6.91,2.73,6.91,6.53v.06c0,4.32-3.3,6.75-8,6.75A13.9,13.9,0,0,1,131.69,194.92Z"/><path class="cls-2" d="M101.31,60.83c-23,4.63-36.1,16.64-36.1,16.64,6.14,25.81,25.93,49.39,44.71,49.43,1.32,3.76,4.63,6.12,7.83,5.39s5.12-4.27,4.71-8.2a33.63,33.63,0,0,0,13.84-12.8,45.62,45.62,0,0,0,3.71-7.36c4.53-11.29,4.13-30.31,1.1-43.93C141.11,60,124.89,56.07,101.31,60.83Z"/><path class="cls-2" d="M62.41,74a106.67,106.67,0,0,1,79.42-17.92l.38-.8a22.17,22.17,0,0,0,1.93-14.58C140.68,25.63,121,17.51,98.07,21a29.26,29.26,0,0,0-8.32-18,4.6,4.6,0,1,0-6.51,6.49A20,20,0,0,1,89,22.92c-14,3.92-25.71,11.58-31.6,21-3.6,5.75-4.81,11.8-3.5,17.51a22.11,22.11,0,0,0,8.11,12.27Z"/></svg>