<svg id="Layer_1" data-name="Layer 1" xmlns="http://www.w3.org/2000/svg" viewBox="0 0 200 200"><defs><style>.cls-1{fill:#3d3d3c;}</style></defs><path class="cls-1" d="M64.78,196.17l3-3.66a10.78,10.78,0,0,0,7,2.86c2.11,0,3.39-.84,3.39-2.22v-.07c0-1.31-.81-2-4.73-3-4.74-1.21-7.79-2.52-7.79-7.19v-.07c0-4.26,3.42-7.08,8.22-7.08a13.55,13.55,0,0,1,8.73,3L80,182.64a11.09,11.09,0,0,0-6.11-2.32c-2,0-3,.91-3,2.05v.07c0,1.54,1,2.05,5.07,3.09,4.77,1.24,7.46,2.95,7.46,7.05v.07c0,4.66-3.56,7.28-8.63,7.28A14.94,14.94,0,0,1,64.78,196.17Z"/><path class="cls-1" d="M86.84,187.91v-.06a12.5,12.5,0,0,1,25-.07v.07a12.5,12.5,0,0,1-25,.06Zm19.57,0v-.06a7.14,7.14,0,0,0-7.12-7.39,7,7,0,0,0-7.05,7.32v.07a7.14,7.14,0,0,0,7.12,7.38A7,7,0,0,0,106.41,187.91Z"/><path class="cls-1" d="M121,190.33l-9-14.24h6l5.61,9.44,5.71-9.44h5.87l-9,14.14v9.37H121Z"/><path class="cls-1" d="M159.17,97.07c-7.58-11.13-18.07-9.49-24.42-16S133.65,68,123.66,54.48c-5.37-7.25-10.77-11.27-21.1-14.49C98,38.55,87,36.9,85.93,28,84.46,16.19,79.39,9.67,65,4.73,56.7,1.89,42.67-2.64,37.91,2c-3.39,3.3-1.68,20.22,0,29.08,2.48,13.3,11.51,19.7,22.66,21.61,8.85,1.51,10.64,12.21,11.53,17,1.39,7.53,2.17,14.29,12.85,21.86,9,6.41,20.94,5,27.29,11.48s5.06,16.15,15.33,24.86C147.58,144.83,175.4,120.93,159.17,97.07ZM75,41.18C69,46.94,58.32,45.52,51,38s-8.42-18.27-2.5-24,16.64-4.34,23.94,3.17S80.88,35.43,75,41.18Zm41.79,43.93C109.66,92,96.82,90.3,88.07,81.3S78.89,60.84,86,53.94s19-6.61,27.77,2.39S123.85,78.21,116.75,85.11Zm35.12,36.42c-5.44,5.29-15.3,4-22-2.92s-7.74-16.79-2.3-22.08,15.3-4,22,2.92S157.31,116.24,151.87,121.53Z"/></svg>