<svg id="Layer_1" data-name="Layer 1" xmlns="http://www.w3.org/2000/svg" viewBox="0 0 200 200"><defs><style>.cls-1{fill:#3d3d3c;}</style></defs><path class="cls-1" d="M30.86,173.5h4.53V190H45.66v4.12H30.86Z"/><path class="cls-1" d="M56.14,173.35h4.18l8.83,20.75H64.41l-1.88-4.62H53.82l-1.89,4.62H47.31Zm4.77,12.13-2.74-6.68-2.74,6.68Z"/><path class="cls-1" d="M70.09,183.86v-.06a10.47,10.47,0,0,1,10.74-10.65A10.63,10.63,0,0,1,89,176.33l-2.89,3.32a7.61,7.61,0,0,0-5.27-2.32,6.1,6.1,0,0,0-6,6.41v.06c0,3.53,2.44,6.48,6,6.48a7.41,7.41,0,0,0,5.42-2.42l2.88,2.92a10.54,10.54,0,0,1-8.44,3.68A10.41,10.41,0,0,1,70.09,183.86Z"/><path class="cls-1" d="M97.52,177.68H91.25V173.5h17.07v4.18h-6.27V194.1H97.52Z"/><path class="cls-1" d="M110,183.86v-.06a11,11,0,0,1,21.9-.06v.06a11,11,0,0,1-21.9.06Zm17.16,0v-.06a6.26,6.26,0,0,0-6.24-6.47,6.16,6.16,0,0,0-6.18,6.41v.06a6.26,6.26,0,0,0,6.24,6.48A6.16,6.16,0,0,0,127.16,183.86Z"/><path class="cls-1" d="M134.37,191.1l2.68-3.21a9.45,9.45,0,0,0,6.15,2.5c1.85,0,3-.73,3-1.94v-.06c0-1.14-.7-1.73-4.15-2.62-4.15-1.06-6.82-2.2-6.82-6.29v-.06c0-3.74,3-6.21,7.21-6.21a11.91,11.91,0,0,1,7.65,2.62l-2.36,3.41a9.69,9.69,0,0,0-5.35-2c-1.74,0-2.65.79-2.65,1.8v.05c0,1.36.88,1.8,4.44,2.71,4.18,1.09,6.54,2.59,6.54,6.18V188c0,4.09-3.12,6.39-7.57,6.39A13.09,13.09,0,0,1,134.37,191.1Z"/><path class="cls-1" d="M154.62,173.5h15.54v4h-11v4.18h9.71v4h-9.71v4.33h11.19v4H154.62Z"/><path class="cls-1" d="M124.78,56.05l0-.12,0-.13L114.44,20.61a8.7,8.7,0,0,0-.4-1.22,6.83,6.83,0,0,0-2.55-13.17H84.36a6.83,6.83,0,0,0-2.54,13.17,8.7,8.7,0,0,0-.4,1.22L71.15,55.8l0,.13,0,.12a77.32,77.32,0,0,0-1.66,20.87v40.66a19.82,19.82,0,0,0,19.8,19.79h17.4a19.82,19.82,0,0,0,19.8-19.79V78.79c0-.59,0-1.22,0-1.89A75.07,75.07,0,0,0,124.78,56.05Zm-2.92,22.67v38.86a15.22,15.22,0,0,1-15.23,15.22H89.23A15.22,15.22,0,0,1,74,117.58V77.31c0-2.2-.13-4.62-.06-7.28l.4.13c.43.15,3.17.9,3.26.92a29.07,29.07,0,0,0,10.08.41c7.77-1.38,14.58-5.77,21.51-9.24a20.8,20.8,0,0,1,9.54-2.41,21.22,21.22,0,0,1,2.22.31C122.42,68.21,122,74.31,121.86,78.72Z"/></svg>