<svg id="Layer_1" data-name="Layer 1" xmlns="http://www.w3.org/2000/svg" viewBox="0 0 200 200"><defs><style>.cls-1{fill:#3d3d3c;}</style></defs><path class="cls-1" d="M40,176.12h5.7l6.13,16.54L58,176.12h5.57l-9.49,23.65H49.52Z"/><path class="cls-1" d="M67.2,176.12H84.91v4.6H72.33v4.76H83.4v4.59H72.33V195H85.07v4.6H67.2Z"/><path class="cls-1" d="M88.63,187.93v-.07a12.05,12.05,0,0,1,12.31-12.14,12.89,12.89,0,0,1,9.22,3.22l-3.25,3.92a8.68,8.68,0,0,0-6.14-2.38c-3.76,0-6.74,3.32-6.74,7.31v.07c0,4.29,3,7.45,7.11,7.45A8.23,8.23,0,0,0,106,193.9v-3.36h-5.2v-4.46H111v10.2A15.29,15.29,0,0,1,101,200C93.66,200,88.63,194.87,88.63,187.93Z"/><path class="cls-1" d="M124,176h4.76l10.06,23.64h-5.39l-2.15-5.27h-9.93l-2.14,5.27H114Zm5.44,13.81-3.12-7.61-3.12,7.61Z"/><path class="cls-1" d="M142.46,176.12h4.76l11,14.46V176.12h5.1V199.6h-4.4l-11.36-14.92V199.6h-5.1Z"/><path class="cls-1" d="M96.38,129c3.86-21,7.93-97.48-72.29-121.31Z"/><path class="cls-1" d="M23.54,7.5l-.1,0S-7.19,114.65,92.15,133.86Z"/><path class="cls-1" d="M101.57,123.48C98.55,101.4,97.94,21.59,182.62.59Z"/><path class="cls-1" d="M183.19.45l.1,0s26.81,113.07-77.55,128.35Z"/></svg>