<svg id="Layer_1" data-name="Layer 1" xmlns="http://www.w3.org/2000/svg" viewBox="0 0 200 200"><defs><style>.cls-1{fill:#3d3d3c;}</style></defs><path class="cls-1" d="M63.73,181.05V181a10.88,10.88,0,0,1,11.11-11,11.63,11.63,0,0,1,8.33,2.91l-2.94,3.54a7.81,7.81,0,0,0-5.54-2.15,6.36,6.36,0,0,0-6.08,6.6V181c0,3.87,2.66,6.72,6.41,6.72a7.41,7.41,0,0,0,4.39-1.27v-3H74.72v-4h9.2v9.2a13.77,13.77,0,0,1-9,3.36C68.27,192,63.73,187.32,63.73,181.05Z"/><path class="cls-1" d="M88.41,170.4h5l5.57,9,5.57-9h5v21.18H105V177.75l-6,9.05h-.12l-5.9-9v13.74H88.41Z"/><path class="cls-1" d="M113.74,181.05V181a11.27,11.27,0,0,1,22.52-.06V181a11.27,11.27,0,0,1-22.52.06Zm17.65,0V181a6.44,6.44,0,0,0-6.42-6.66,6.34,6.34,0,0,0-6.35,6.6V181a6.44,6.44,0,0,0,6.41,6.66A6.34,6.34,0,0,0,131.39,181.05Z"/><path class="cls-1" d="M149.5,109.84,115.76,51.93V14.39c3.07-3.13,4.17-5.19,3.57-6.66-.22-.52-.84-1.39-2.63-1.39l-.36,0a7.26,7.26,0,0,0-1.57-.14,16.5,16.5,0,0,0-2.18.16H87.41a16.66,16.66,0,0,0-2.18-.16,7.26,7.26,0,0,0-1.57.14l-.36,0c-1.79,0-2.41.87-2.63,1.39-.61,1.47.5,3.53,3.57,6.66V51.93L50.5,109.84a14,14,0,0,0-2.16,7.65c0,4.7,4.33,8.12,10.3,8.12h82.72c6,0,10.3-3.42,10.3-8.12A14,14,0,0,0,149.5,109.84Zm-5.8,6.72c-1.15,4.43-7.49,3.75-7.49,3.75s-59.05-.17-68.62,0c-7.35.13-10.26-.92-11.33-4s1.2-7.3,1.2-7.3L78.3,74.45c1.76-2.08,12.88,3.47,17.31,5.1a34.89,34.89,0,0,0,17.86,1.76A19.51,19.51,0,0,0,123,77s12.46,20.4,16.24,26.32S145,111.61,143.7,116.56Z"/></svg>