<svg id="Layer_1" data-name="Layer 1" xmlns="http://www.w3.org/2000/svg" viewBox="0 0 200 200"><defs><style>.cls-1{fill:#3d3d3c;}</style></defs><path class="cls-1" d="M25.41,172.74h5l5.53,8.89,5.53-8.89h5v21H41.85V180l-5.92,9h-.12L30,180.13v13.64H25.41Z"/><path class="cls-1" d="M51.16,184.75v-12h4.63v11.89c0,3.43,1.71,5.2,4.53,5.2s4.54-1.71,4.54-5.05v-12h4.63V184.6c0,6.37-3.58,9.5-9.23,9.5S51.16,190.94,51.16,184.75Z"/><path class="cls-1" d="M72.76,190.7l2.74-3.27A9.64,9.64,0,0,0,81.78,190c1.89,0,3-.75,3-2v-.06c0-1.17-.72-1.77-4.23-2.67-4.24-1.09-7-2.26-7-6.43v-.06c0-3.82,3.06-6.34,7.36-6.34a12.18,12.18,0,0,1,7.81,2.67l-2.41,3.49a9.8,9.8,0,0,0-5.46-2.08c-1.78,0-2.71.81-2.71,1.83v.07c0,1.38.9,1.83,4.54,2.76,4.26,1.11,6.67,2.64,6.67,6.31v.06c0,4.17-3.19,6.52-7.72,6.52A13.37,13.37,0,0,1,72.76,190.7Z"/><path class="cls-1" d="M97.88,177h-6.4v-4.26h17.43V177h-6.4v16.77H97.88Z"/><path class="cls-1" d="M117,172.59h4.27l9,21.18H125.4l-1.92-4.72h-8.89l-1.93,4.72H108ZM121.83,185l-2.8-6.82L116.24,185Z"/><path class="cls-1" d="M133.49,172.74h9.61a8.38,8.38,0,0,1,6.13,2.13,6.6,6.6,0,0,1,1.8,4.81v.06a6.53,6.53,0,0,1-4.5,6.52l5.13,7.51h-5.4L141.75,187h-3.64v6.73h-4.62ZM142.8,183c2.25,0,3.55-1.2,3.55-3v-.06c0-2-1.39-3-3.64-3h-4.6v6Z"/><path class="cls-1" d="M155.21,172.74h8.2c6.61,0,11.18,4.53,11.18,10.45v.06c0,5.92-4.57,10.52-11.18,10.52h-8.2Zm4.63,4.17v12.68h3.57a6,6,0,0,0,6.34-6.28v-.06a6,6,0,0,0-6.34-6.34Z"/><path class="cls-1" d="M126.83,121.11c0,6.66-5,12-11.07,12H79.58c-6.12,0-11.07-5.39-11.07-12V59c0-6.65,4.95-12,11.07-12h36.18c6.12,0,11.07,5.4,11.07,12Z"/><path class="cls-1" d="M117.75,43V33.07A2.77,2.77,0,0,0,115,30.3H80.35a2.77,2.77,0,0,0-2.76,2.77V43Z"/><polygon class="cls-1" points="94.98 6.22 92.61 27.11 102.73 27.12 100.36 6.22 94.98 6.22"/></svg>