<svg id="Layer_1" data-name="Layer 1" xmlns="http://www.w3.org/2000/svg" viewBox="0 0 200 200"><defs><style>.cls-1{fill:#3d3d3c;}</style></defs><path class="cls-1" d="M36.88,188.74v-.06a11.1,11.1,0,0,1,11.39-11.29,11.25,11.25,0,0,1,8.61,3.37l-3.06,3.52a8,8,0,0,0-5.58-2.46c-3.68,0-6.33,3.05-6.33,6.8v.06c0,3.74,2.59,6.86,6.33,6.86,2.49,0,4-1,5.74-2.56L57,196.07a11.16,11.16,0,0,1-9,3.9A11,11,0,0,1,36.88,188.74Z"/><path class="cls-1" d="M60.88,177.76H77.35V182H65.65v4.42H75.94v4.28H65.65v4.58H77.5v4.28H60.88Z"/><path class="cls-1" d="M81.78,177.76h4.8v17.47H97.47v4.37H81.78Z"/><path class="cls-1" d="M101.09,177.76h16.47V182H105.87v4.42h10.29v4.28H105.87v4.58h11.85v4.28H101.09Z"/><path class="cls-1" d="M122,177.76h10a8.7,8.7,0,0,1,6.36,2.21,6.86,6.86,0,0,1,1.87,5V185a6.79,6.79,0,0,1-4.67,6.77l5.33,7.8h-5.61l-4.68-7H126.8v7H122Zm9.67,10.61c2.34,0,3.68-1.25,3.68-3.09v-.06c0-2.06-1.44-3.12-3.78-3.12H126.8v6.27Z"/><path class="cls-1" d="M149.92,191l-8.39-13.23h5.61l5.21,8.77,5.31-8.77h5.46l-8.4,13.13v8.71h-4.8Z"/><path class="cls-1" d="M130.57,57.23c4.9-4.64,5.73-8.06,8-14.57-4.53-1.67-8.1-2.27-12.8-1.23L125,37.55c-8.77,2.22-9.08,6.81-13,15.62-.55,1.27-2.83.89-2.76-.46a11.92,11.92,0,0,1,1.09-4.19c1.31-2.92,3.46-5.51,5-8.33a24.3,24.3,0,0,0,.32-23.28l-2.67,1.32c-1.14-3.56-2.32-7-6.07-10.44-.24.32-1,1.33-1.2,1.65A35.36,35.36,0,0,0,100.89,0a35,35,0,0,0-5.33,9.22c-.23-.33-.9-1.37-1.13-1.7-3.9,3.33-5.22,6.66-6.51,10.18l-2.61-1.43a24.29,24.29,0,0,0-.66,23.27c1.46,2.88,3.5,5.56,4.69,8.53a11.8,11.8,0,0,1,.9,4.24c0,1.35-2.27,1.63-2.77.34-3.49-9-3.61-13.57-12.27-16.16l-.89,3.85c-4.65-1.25-8.24-.79-12.84.68,2,6.61,2.64,10.06,7.34,14.9a4.15,4.15,0,0,1-3,1c3.84,9.9,13.93,15.14,22,17.83l-4.81,58.85s3.88,6,16.94,6a27.15,27.15,0,0,0,16.94-5.84l-4.76-58.91c7.93-2.49,17.3-7.28,21.3-16.45A4.12,4.12,0,0,1,130.57,57.23Z"/></svg>