<svg id="Layer_1" data-name="Layer 1" xmlns="http://www.w3.org/2000/svg" viewBox="0 0 200 200"><defs><style>.cls-1{fill:#3d3d3c;}</style></defs><path class="cls-1" d="M9.09,195.24l3-3.58a10.52,10.52,0,0,0,6.86,2.79c2.06,0,3.31-.82,3.31-2.16v-.07c0-1.28-.79-1.93-4.63-2.92-4.62-1.18-7.6-2.46-7.6-7v-.07c0-4.16,3.34-6.92,8-6.92a13.29,13.29,0,0,1,8.53,2.92L23.94,182a10.75,10.75,0,0,0-6-2.26c-1.93,0-2.95.89-2.95,2v.07c0,1.51,1,2,5,3,4.65,1.21,7.27,2.88,7.27,6.88v.07c0,4.55-3.47,7.11-8.42,7.11A14.59,14.59,0,0,1,9.09,195.24Z"/><path class="cls-1" d="M31.29,188.75V175.63h5.05v13c0,3.73,1.87,5.67,4.95,5.67s5-1.87,5-5.51V175.63h5v13c0,6.95-3.9,10.36-10.07,10.36S31.29,195.5,31.29,188.75Z"/><path class="cls-1" d="M56.44,175.63h5.05V194H72.93v4.59H56.44Z"/><path class="cls-1" d="M76.74,175.63h9.38c5.47,0,8.79,3.25,8.79,7.94v.06c0,5.31-4.14,8.07-9.28,8.07H81.79v6.88H76.74Zm9.05,11.58c2.52,0,4-1.51,4-3.48v-.07c0-2.26-1.57-3.47-4.1-3.47h-3.9v7Z"/><path class="cls-1" d="M98.65,175.63h5v9.08H113v-9.08h5v23h-5v-9.21H103.7v9.21h-5Z"/><path class="cls-1" d="M123.8,175.63h5v23h-5Z"/><path class="cls-1" d="M139.93,180.29h-7v-4.66h19v4.66h-7v18.29h-5Z"/><path class="cls-1" d="M155.84,175.63h17.31v4.49h-12.3v4.66h10.82v4.49H160.85v4.82h12.46v4.49H155.84Z"/><path class="cls-1" d="M176.23,195.24l3-3.58a10.49,10.49,0,0,0,6.85,2.79c2.07,0,3.31-.82,3.31-2.16v-.07c0-1.28-.78-1.93-4.62-2.92-4.62-1.18-7.61-2.46-7.61-7v-.07c0-4.16,3.35-6.92,8-6.92a13.28,13.28,0,0,1,8.52,2.92l-2.62,3.8a10.8,10.8,0,0,0-6-2.26c-1.93,0-3,.89-3,2v.07c0,1.51,1,2,5,3,4.66,1.21,7.28,2.88,7.28,6.88v.07c0,4.55-3.48,7.11-8.43,7.11A14.62,14.62,0,0,1,176.23,195.24Z"/><path class="cls-1" d="M163.76,97a18.65,18.65,0,0,0-16.43,9.51L122,91.65a21.12,21.12,0,0,0-16-28.82l.25-26a18.64,18.64,0,1,0-6.79-.06l-.25,26.05a21.18,21.18,0,0,0-18,20.73,20.94,20.94,0,0,0,.53,4.84l-27,13.16a18.65,18.65,0,1,0,3.78,5.7L84.2,94.65a21.16,21.16,0,0,0,34.24,2.8l26.69,15.63a19.1,19.1,0,0,0-.2,2.4A18.66,18.66,0,1,0,163.76,97Z"/></svg>