<svg id="Layer_1" data-name="Layer 1" xmlns="http://www.w3.org/2000/svg" viewBox="0 0 200 200"><defs><style>.cls-1{fill:#3d3d3c;}</style></defs><path class="cls-1" d="M39.41,187.13v0A10.6,10.6,0,0,1,50.23,176.4a11.39,11.39,0,0,1,8.11,2.83l-2.86,3.45a7.65,7.65,0,0,0-5.4-2.09A6.2,6.2,0,0,0,44.15,187v.06a6.18,6.18,0,0,0,6.25,6.54,7.21,7.21,0,0,0,4.28-1.24v-2.95H50.11v-3.92h9v9a13.43,13.43,0,0,1-8.81,3.27C43.83,197.75,39.41,193.24,39.41,187.13Z"/><path class="cls-1" d="M63.44,176.76H68v16.51H78.27v4.12H63.44Z"/><path class="cls-1" d="M80.78,188.55V176.76h4.54v11.67c0,3.36,1.68,5.1,4.45,5.1s4.45-1.68,4.45-4.95V176.76h4.54V188.4c0,6.25-3.51,9.32-9.05,9.32S80.78,194.62,80.78,188.55Z"/><path class="cls-1" d="M108.2,180.94h-6.28v-4.18H119v4.18h-6.28v16.45H108.2Z"/><path class="cls-1" d="M122.5,176.76h15.57v4H127V185h9.73v4H127v4.34h11.2v4H122.5Z"/><path class="cls-1" d="M142.25,176.76h4.19l9.67,12.7v-12.7h4.48v20.63h-3.86l-10-13.12v13.12h-4.49Z"/><path class="cls-1" d="M135.71,56.2a34.55,34.55,0,0,0-34.28,30.27V61.21a34.55,34.55,0,0,0,34.28-34.55,34.56,34.56,0,0,0-34.28,30.28V47.33A34.54,34.54,0,0,0,100,0a34.55,34.55,0,0,0-1.43,47.34v9.6A34.56,34.56,0,0,0,64.29,26.66,34.55,34.55,0,0,0,98.57,61.21V86.48A34.55,34.55,0,0,0,64.29,56.2,34.54,34.54,0,0,0,98.57,90.74V116A34.56,34.56,0,0,0,64.29,85.73h0a34.55,34.55,0,0,0,34.28,34.55v16c0,1.59.64,2.52,1.43,2.52s1.43-.93,1.43-2.52v-16a34.55,34.55,0,0,0,34.28-34.55h0A34.56,34.56,0,0,0,101.43,116V90.74A34.54,34.54,0,0,0,135.71,56.2Z"/></svg>