<svg id="Layer_1" data-name="Layer 1" xmlns="http://www.w3.org/2000/svg" viewBox="0 0 200 200"><defs><style>.cls-1{fill:#3d3d3c;}</style></defs><path class="cls-1" d="M6.41,176.28H12l6.18,9.94,6.18-9.94h5.57v23.5H24.77V184.44l-6.61,10H18l-6.55-9.94v15.24H6.41Z"/><path class="cls-1" d="M34.51,188.1V188A12.15,12.15,0,0,1,47,175.88,12,12,0,0,1,59.48,188V188A12.15,12.15,0,0,1,47,200.18,12,12,0,0,1,34.51,188.1Zm19.57,0V188A7.14,7.14,0,0,0,47,180.65,7,7,0,0,0,39.91,188V188A7.15,7.15,0,0,0,47,195.42,7,7,0,0,0,54.08,188.1Z"/><path class="cls-1" d="M64.08,176.28h5.17v18.8H81v4.7H64.08Z"/><path class="cls-1" d="M84.86,176.28H90v18.8h11.71v4.7H84.86Z"/><path class="cls-1" d="M104.6,189.71V176.28h5.17v13.3c0,3.82,1.91,5.8,5.07,5.8s5.06-1.91,5.06-5.64V176.28h5.17v13.26c0,7.12-4,10.61-10.3,10.61S104.6,196.62,104.6,189.71Z"/><path class="cls-1" d="M128.74,196.36l3-3.66a10.79,10.79,0,0,0,7,2.85c2.12,0,3.39-.84,3.39-2.21v-.07c0-1.31-.8-2-4.73-3-4.73-1.21-7.78-2.52-7.78-7.18V183c0-4.26,3.42-7.08,8.22-7.08a13.59,13.59,0,0,1,8.73,3l-2.69,3.89a11.06,11.06,0,0,0-6.11-2.32c-2,0-3,.91-3,2.05v.07c0,1.54,1,2.05,5.07,3.09,4.76,1.24,7.45,2.95,7.45,7v.07c0,4.67-3.56,7.29-8.63,7.29A15,15,0,0,1,128.74,196.36Z"/><path class="cls-1" d="M150.79,188.1V188A11.94,11.94,0,0,1,163,175.88a12.11,12.11,0,0,1,9.26,3.63L169,183.3a8.66,8.66,0,0,0-6-2.65c-4,0-6.82,3.29-6.82,7.31V188c0,4,2.79,7.39,6.82,7.39,2.68,0,4.33-1.08,6.17-2.76l3.29,3.33a12,12,0,0,1-9.63,4.19A11.85,11.85,0,0,1,150.79,188.1Z"/><path class="cls-1" d="M175,196.36l3.06-3.66a10.79,10.79,0,0,0,7,2.85c2.12,0,3.39-.84,3.39-2.21v-.07c0-1.31-.8-2-4.73-3-4.73-1.21-7.79-2.52-7.79-7.18V183c0-4.26,3.43-7.08,8.23-7.08a13.55,13.55,0,0,1,8.72,3l-2.68,3.89a11.06,11.06,0,0,0-6.11-2.32c-2,0-3,.91-3,2.05v.07c0,1.54,1,2.05,5.07,3.09,4.76,1.24,7.45,2.95,7.45,7v.07c0,4.67-3.56,7.29-8.63,7.29A15,15,0,0,1,175,196.36Z"/><path class="cls-1" d="M163.45,45.26l-1.6-.6-21.28,26.7a1.81,1.81,0,0,1-1.47.74,1.82,1.82,0,0,1-1.46-2.92L160,41l.15-3.53a16.57,16.57,0,0,0-14.9-17.21l-5.34-.53-14.77,39A1.83,1.83,0,0,1,123.44,60a1.66,1.66,0,0,1-.62-.11,1.87,1.87,0,0,1-1.09-2.39l15-39.61.72-1.7A16.57,16.57,0,0,0,117.76,6.5l-1.57.42-6.4,46.49A1.83,1.83,0,0,1,108,55h-.24a1.86,1.86,0,0,1-1.58-2.08l6.4-46.46L112.48,6,109.8,4A16.56,16.56,0,0,0,90.2,4L87.53,6l-.09.5,6.09,45.26A1.85,1.85,0,0,1,92,53.83h-.24a1.83,1.83,0,0,1-1.81-1.62l-6.1-45.3L82.24,6.5a16.59,16.59,0,0,0-20,10.43l1,1.92L79,59.71a1.83,1.83,0,0,1-1.08,2.34,1.74,1.74,0,0,1-.63.11A1.84,1.84,0,0,1,75.57,61L59.85,20.21l-.27-.43-4.85.48a16.57,16.57,0,0,0-14.9,17.21L40,40.59,63.38,70.36a1.83,1.83,0,0,1-1.47,2.92,1.8,1.8,0,0,1-1.46-.74l-22.07-28-1.83.69a18,18,0,0,0-4.79,31.05l39.41,31-1.26,3.8a11.71,11.71,0,0,0,.38,8.84,11.42,11.42,0,0,0,11.37,6.44l18.34,0,18.34,0A11.42,11.42,0,0,0,129.71,120a11.68,11.68,0,0,0,.38-8.83l-1.26-3.81,39.41-31a18,18,0,0,0-4.79-31.05Z"/></svg>