<svg id="Layer_1" data-name="Layer 1" xmlns="http://www.w3.org/2000/svg" viewBox="0 0 200 200"><defs><style>.cls-1{fill:#3d3d3c;}</style></defs><path class="cls-1" d="M19.91,178.12H13.5v-4.27H31v4.27H24.54v16.8H19.91Z"/><path class="cls-1" d="M34.51,173.85h9.63A8.4,8.4,0,0,1,50.28,176a6.61,6.61,0,0,1,1.81,4.82v.06a6.54,6.54,0,0,1-4.52,6.53l5.15,7.53H47.3l-4.51-6.75H39.14v6.75H34.51Zm9.33,10.23c2.26,0,3.55-1.2,3.55-3V181c0-2-1.38-3-3.64-3H39.14v6.05Z"/><path class="cls-1" d="M63.5,173.7h4.27l9,21.22H72L70,190.19H61.12l-1.93,4.73H54.47Zm4.88,12.4-2.8-6.84-2.8,6.84Z"/><path class="cls-1" d="M80.06,173.85h4.27l9.87,13v-13h4.58v21.07H94.84l-10.21-13.4v13.4H80.06Z"/><path class="cls-1" d="M102.39,191.85l2.74-3.28a9.7,9.7,0,0,0,6.29,2.55c1.9,0,3-.75,3-2v-.06c0-1.18-.72-1.78-4.24-2.68-4.24-1.09-7-2.26-7-6.44v-.06c0-3.83,3.07-6.35,7.37-6.35a12.24,12.24,0,0,1,7.83,2.67l-2.41,3.5a9.85,9.85,0,0,0-5.48-2.08c-1.78,0-2.71.81-2.71,1.83v.07c0,1.38.91,1.83,4.55,2.76,4.27,1.12,6.68,2.65,6.68,6.33v.06c0,4.18-3.19,6.53-7.74,6.53A13.45,13.45,0,0,1,102.39,191.85Z"/><path class="cls-1" d="M132.14,173.85h16v4.21H136.77v4.49h10v4.21h-10v8.16h-4.63Z"/><path class="cls-1" d="M156.7,173.7H161l9,21.22h-4.84l-1.93-4.73h-8.91l-1.92,4.73h-4.73Zm4.88,12.4-2.8-6.84L156,186.1Z"/><path class="cls-1" d="M175.45,178.12H169v-4.27H186.5v4.27h-6.41v16.8h-4.64Z"/><path class="cls-1" d="M134,69.43c-7.68-14.59-28.27-57.54-28.47-58L100,0,94.51,11.46c-.21.43-20.75,43.3-28.48,58-3.43,6.51-6.6,13.7-6.6,22.13a40.57,40.57,0,0,0,81.14,0C140.57,83.14,137.39,76,134,69.43Zm-34,56.62A34.48,34.48,0,0,1,65.52,91.57c0-7.15,2.8-13.42,5.9-19.3C79.28,57.33,100,14.09,100,14.09s20.75,43.32,28.58,58.18c3.1,5.88,5.9,12.15,5.9,19.3A34.48,34.48,0,0,1,100,126.05Z"/><path class="cls-1" d="M100,115.81A25.74,25.74,0,0,1,74.29,90.09a1.69,1.69,0,0,1,3.37,0A22.37,22.37,0,0,0,100,112.44a1.69,1.69,0,0,1,0,3.37Z"/></svg>