<svg id="Layer_1" data-name="Layer 1" xmlns="http://www.w3.org/2000/svg" viewBox="0 0 200 200"><defs><style>.cls-1,.cls-2{fill:#3d3d3c;}.cls-2{fill-rule:evenodd;}</style></defs><path class="cls-1" d="M67.81,178.18H84.25v4.27H72.57v4.42H82.84v4.26H72.57v4.58H84.4V200H67.81Z"/><path class="cls-1" d="M87.7,189.14v-.06a11.19,11.19,0,0,1,11.43-11.27,12,12,0,0,1,8.56,3l-3,3.65a8,8,0,0,0-5.7-2.21A6.54,6.54,0,0,0,92.72,189v.07c0,4,2.74,6.91,6.6,6.91a7.65,7.65,0,0,0,4.51-1.31v-3.11H99v-4.14h9.47v9.46a14.15,14.15,0,0,1-9.31,3.45C92.37,200.34,87.7,195.58,87.7,189.14Z"/><path class="cls-1" d="M112.11,189.14v-.06a11.19,11.19,0,0,1,11.43-11.27,12,12,0,0,1,8.56,3l-3,3.65a8,8,0,0,0-5.7-2.21,6.54,6.54,0,0,0-6.25,6.78v.07c0,4,2.74,6.91,6.6,6.91a7.65,7.65,0,0,0,4.51-1.31v-3.11h-4.83v-4.14h9.47v9.46a14.13,14.13,0,0,1-9.31,3.45C116.78,200.34,112.11,195.58,112.11,189.14Z"/><path class="cls-2" d="M130.41,18.07C120.81,6.9,110.3,1,100,1S79.26,6.9,69.65,18.07C53.28,37.11,43.77,66.58,47,88.14c5.62,37.08,31.06,50.29,53,50.29s47.38-13.21,53-50.29C156.29,66.58,146.78,37.11,130.41,18.07Zm17.1,69.24c-5,33.29-27.3,45.54-47.48,45.54S57.6,120.6,52.56,87.31C47.61,54.67,74.26,6.58,100,6.58S152.45,54.67,147.51,87.31Z"/><path class="cls-1" d="M127.77,85A27.74,27.74,0,1,1,100,57.25,27.74,27.74,0,0,1,127.77,85Z"/></svg>