<svg id="Layer_1" data-name="Layer 1" xmlns="http://www.w3.org/2000/svg" viewBox="0 0 200 200"><defs><style>.cls-1{fill:#3d3d3c;}</style></defs><path class="cls-1" d="M5.23,193.24l3-3.53a10.84,10.84,0,0,0,7,2.75c2.1,0,3.36-.81,3.36-2.14v-.06c0-1.27-.8-1.92-4.69-2.89-4.69-1.17-7.72-2.43-7.72-6.94v-.07c0-4.12,3.39-6.84,8.15-6.84A13.69,13.69,0,0,1,23,176.4l-2.66,3.77a11,11,0,0,0-6.06-2.24c-2,0-3,.87-3,2V180c0,1.49,1,2,5,3,4.73,1.2,7.39,2.85,7.39,6.81v.07c0,4.5-3.53,7-8.55,7A15,15,0,0,1,5.23,193.24Z"/><path class="cls-1" d="M28.12,173.84h5.12v9h9.45v-9h5.12v22.71H42.69v-9.12H33.24v9.12H28.12Z"/><path class="cls-1" d="M53.41,173.84H71v4.44H58.5v4.61h11v4.45h-11v4.77H71.14v4.44H53.41Z"/><path class="cls-1" d="M75.7,173.84h5.12V192H92.43v4.54H75.7Z"/><path class="cls-1" d="M96.3,173.84h5.12V192H113v4.54H96.3Z"/><path class="cls-1" d="M116.89,173.84h17.73v4.54H122v4.84h11.12v4.54H122v8.79h-5.12Z"/><path class="cls-1" d="M139,173.84h5.12v22.71H139Z"/><path class="cls-1" d="M148.3,193.24l3-3.53a10.84,10.84,0,0,0,6.95,2.75c2.1,0,3.36-.81,3.36-2.14v-.06c0-1.27-.8-1.92-4.69-2.89-4.69-1.17-7.72-2.43-7.72-6.94v-.07c0-4.12,3.39-6.84,8.15-6.84A13.67,13.67,0,0,1,166,176.4l-2.66,3.77a11,11,0,0,0-6.05-2.24c-2,0-3,.87-3,2V180c0,1.49,1,2,5,3,4.73,1.2,7.39,2.85,7.39,6.81v.07c0,4.5-3.53,7-8.55,7A15,15,0,0,1,148.3,193.24Z"/><path class="cls-1" d="M171.19,173.84h5.12v9h9.45v-9h5.13v22.71h-5.13v-9.12h-9.45v9.12h-5.12Z"/><path class="cls-1" d="M160.85,71.1a3.38,3.38,0,0,0-1.1-.48,63.44,63.44,0,0,0-19.86-1.42,31.27,31.27,0,0,0-7.75,1.49A18.54,18.54,0,0,0,129.33,72c-1.34.73-1.9,2.07-2.56,3.31a68.41,68.41,0,0,0-3.34,8.52c-1.12,3.09-2.24,6.18-3.55,9.2-2.38,5.49-6.62,9.17-12.2,11.45a17.52,17.52,0,0,1-18.75-3.12A11.18,11.18,0,0,0,87,100.33c-.32-.17-.34-.38-.09-.64a11.44,11.44,0,0,0,2.66-5.3,1.77,1.77,0,0,1,1.48-1.28,9.85,9.85,0,0,1,4.58.17c.25.06.73,0,.75,0,.11-.43-.33-.42-.59-.52a9.68,9.68,0,0,0-4.86-.44,3.18,3.18,0,0,0-2.48,1.82,12.51,12.51,0,0,1-3,4.34c-.35.29-.56.3-.89,0-1.16-1-1.19-1-.27-2.13,1.11-1.4,2.49-5.68,2.65-6.18a1.41,1.41,0,0,1,1.33-1.08c1.42-.06,2.85-.1,4.26,0s3,.23,4.57.32c.41,0,1,.18,1.09-.43s-.59-.52-1-.59a43.78,43.78,0,0,0-7.92-.72c-2.59.06-3.75.83-4.58,3.24a12.44,12.44,0,0,1-2.43,4.33l-.4.45a2.08,2.08,0,0,1-.12-.38,5.12,5.12,0,0,0-1.38-2.75c-.11-.12-.19-.45-.11-.53a21.71,21.71,0,0,0,2.95-4.91,13,13,0,0,1,1.22-2,3.55,3.55,0,0,1,2.62-1.21,21.87,21.87,0,0,1,5.17.33c.57.09,1.15.15,1.74.19.14,0,.3-.14.45-.22-.12-.12-.21-.31-.35-.35a21.35,21.35,0,0,0-7.85-1.07A5.4,5.4,0,0,0,82,85.71c-1,1.57-1.82,3.18-2.72,4.78-.35.61-.35.61-.93.19s-1.24-.89-1.87-1.32c-.23-.16-.33-.3-.14-.57,1.63-2.34,3.26-4.67,4.84-7a4,4,0,0,1,2.53-1.65A17.6,17.6,0,0,1,89,79.83c1.86.09,8.25.39,9.59.35a3.43,3.43,0,0,0,.44-.09,1.09,1.09,0,0,1,0-.17,2.33,2.33,0,0,0-.57-.17c-1.07-.1-2.15-.17-3.22-.27-2.74-.25-5.46-.54-8.19-.77a19.25,19.25,0,0,0-2.52,0A6.94,6.94,0,0,0,79,81.85c-1.31,1.87-2.75,3.64-4.12,5.46-.29.4-.54.49-.91.1s-.86-.82-1.29-1.22c-.21-.2-.24-.38,0-.59,2.36-2,4-4.69,5.74-7.17.55-.77,1.06-1.56,1.62-2.32a3.67,3.67,0,0,1,3.93-1.48c2,.41,4,.93,6,1.39.47.11,1,.19,1.46.28.09-.58-.33-.66-.64-.75-2.23-.66-4.45-1.34-6.7-1.93a6.68,6.68,0,0,0-2.19-.09A4,4,0,0,0,79.2,74.8c-1.3,1.36-6,6.66-7.06,7.9-.23.26-.5.48-.79.75-.28-.67-.55-1.28-.78-1.9a.52.52,0,0,1,.2-.4c2.79-2.15,4.9-4.91,7.31-7.4a49.48,49.48,0,0,1,3.65-3.45,4.32,4.32,0,0,1,3.89-1c1.47.35,2.92.72,4.38,1.09.55.14,1.09.32,1.64.48l.12-.18c-.14-.12-.26-.3-.43-.37a21.58,21.58,0,0,0-6.52-2.07,6.36,6.36,0,0,0-4.45,1.38c-2.25,1.51-9.13,8.14-10.7,9.54-.61.54-.77.47-1-.3l0-.1c-.31-1-.24-1,.57-1.65,1.41-1.2,7.71-7.81,9.53-9.83,2.19-2.45,4.87-3,8-2,1.44.47,2.94.8,4.41,1.16.17,0,.39-.09.58-.13a1.88,1.88,0,0,0-.44-.36c-1.89-.68-3.76-1.45-5.71-2a7.63,7.63,0,0,0-7.79,1.85c-2.08,2-8.23,8.33-9.31,9.36a4.48,4.48,0,0,1-.58.39c0-1.19,0-2.22,0-3.25A3.53,3.53,0,0,1,69,69.74a19.83,19.83,0,0,0,4.46-8.26,15.85,15.85,0,0,1,5.61-8.27A44.74,44.74,0,0,0,89,43.29a22.53,22.53,0,0,1,10-7.75c2.82-1.18,17.38-7,21.46-9.47,1.51-.93,5-3.3,5.08-3.5-.24-.05-.51-.2-.69-.13-1,.41-2,.82-3,1.32-4.86,2.53-16.35,7.23-17,7.46-2.5.83-5,1.71-7.49,2.5-1,.32-2.13.48-3.2.7a4.46,4.46,0,0,1-.71,0c.67-.62,1.22-1.18,1.82-1.68.36-.3.81-.5,1.18-.79.16-.12.22-.35.33-.54a2.44,2.44,0,0,0-.61,0l-2.33.92a4.42,4.42,0,0,1-.63.14,1.59,1.59,0,0,0-.13-.13,25,25,0,0,1,3.54-2.88c1.07-.62,2.2-1.13,3.3-1.7a4.74,4.74,0,0,0,.51-.37c0-.07,0-.14-.07-.21L94,28.35a.88.88,0,0,1,0-.15C94,28.12,103.35,24.45,108,23a120.09,120.09,0,0,0,11.29-4.58c1.78-.78,3.62-1.45,5.39-2.26,2.34-1.07,4.66-2.18,7-3.35,1.52-.76,3-1.65,4.46-2.49a1.52,1.52,0,0,0,.35-.32c0-.05,0-.11,0-.16a4.49,4.49,0,0,0-.83.09c-.69.21-1.36.45-2,.72-3.5,1.4-28.94,11.1-32.24,12.11-2.84.87-9,2.24-9.13,2.18l.83-.32,14.52-5.09c4.26-1.5,8.59-2.83,12.74-4.56a150.05,150.05,0,0,0,15.31-7c2.09-1.15,4.27-2.14,6.36-3.28s3.92-2.27,5.87-3.42c.15-.09.22-.29.33-.43-.2-.05-.42-.18-.58-.12-.82.28-1.65.56-2.44.92-3.49,1.59-7,3.17-10.45,4.84a80.3,80.3,0,0,1-9.55,3.72c-5,1.7-10.08,3.19-15.08,4.9-5.88,2-11.91,3.51-17.89,5.21A184,184,0,0,0,71,27.34c-5.64,2.36-16.2,8.86-16.31,8.93-3.21,2.25-19.18,13.38-22.65,29.24-1.1,5-1.94,10-.82,15,.34,1.55.92,3,1.41,4.56C34,89.41,41.9,102.2,43.9,104.47a59.58,59.58,0,0,0,6.2,6c7.38,6.26,17.69,10.14,20.87,11.16a48.56,48.56,0,0,0,18.8,2,59.5,59.5,0,0,0,19-4.32,40.65,40.65,0,0,0,15.73-11.83c2.24-2.74,4.24-5.67,6.46-8.43,2.68-3.35,13-15.11,15.58-17.53a47.52,47.52,0,0,1,9.51-7.4c1.51-.82,3.1-1.48,4.67-2.2C161.24,71.67,161.31,71.42,160.85,71.1ZM71.35,35.18a6.23,6.23,0,0,1,4.74-1.41,3.4,3.4,0,0,1,3.2,2.57,5.18,5.18,0,0,1-1.61,5.26,4.37,4.37,0,0,1-4.76.87A4.17,4.17,0,0,1,71.35,35.18Z"/></svg>