<svg id="Layer_1" data-name="Layer 1" xmlns="http://www.w3.org/2000/svg" viewBox="0 0 200 200"><defs><style>.cls-1{fill:#3d3d3c;}</style></defs><path class="cls-1" d="M38.89,192.74l3.24-3.87a11.45,11.45,0,0,0,7.43,3c2.24,0,3.59-.89,3.59-2.35v-.07c0-1.39-.85-2.1-5-3.16-5-1.28-8.25-2.67-8.25-7.61v-.08c0-4.51,3.63-7.5,8.71-7.5a14.36,14.36,0,0,1,9.24,3.17L55,178.41A11.64,11.64,0,0,0,48.53,176c-2.1,0-3.2,1-3.2,2.17v.07c0,1.63,1.07,2.17,5.37,3.27,5,1.31,7.89,3.13,7.89,7.47V189c0,4.94-3.77,7.71-9.14,7.71A15.82,15.82,0,0,1,38.89,192.74Z"/><path class="cls-1" d="M63,185.7V171.48h5.47v14.08c0,4.05,2,6.15,5.37,6.15s5.37-2,5.37-6V171.48h5.48v14c0,7.54-4.23,11.24-10.92,11.24S63,193,63,185.7Z"/><path class="cls-1" d="M89.14,184v-.07a12.78,12.78,0,0,1,13-12.87,13.66,13.66,0,0,1,9.78,3.42l-3.45,4.15A9.21,9.21,0,0,0,102,176.1c-4,0-7.15,3.52-7.15,7.75v.07c0,4.55,3.13,7.9,7.54,7.9a8.73,8.73,0,0,0,5.16-1.5v-3.55h-5.51V182h10.81v10.81a16.15,16.15,0,0,1-10.64,3.94C94.47,196.79,89.14,191.35,89.14,184Z"/><path class="cls-1" d="M126.65,171.3h5l10.67,25.07h-5.72l-2.28-5.58H123.85l-2.28,5.58H116ZM132.42,186l-3.31-8.07L125.8,186Z"/><path class="cls-1" d="M146.21,171.48h11.38c3.17,0,5.62.89,7.26,2.52a7.86,7.86,0,0,1,2.13,5.69v.07a7.73,7.73,0,0,1-5.33,7.72l6.08,8.89h-6.4l-5.34-8h-4.3v8h-5.48Zm11,12.09c2.66,0,4.19-1.42,4.19-3.52V180c0-2.35-1.63-3.56-4.3-3.56h-5.44v7.15Z"/><path class="cls-1" d="M180.84,30.89a2.83,2.83,0,0,0-1.89-1l-53.09-4.85a2.92,2.92,0,0,0-1.59.32L102.66,36.83l-6-32.23a2.8,2.8,0,0,0-1.33-1.89,2.8,2.8,0,0,0-2-.6L46.17,6.57a2.77,2.77,0,0,0-1.5.61L20.43,26.48a2.11,2.11,0,0,0-.23.19h0l-.05.05A5.64,5.64,0,0,0,18.29,32l9.2,49A5.65,5.65,0,0,0,33,85.65a5.47,5.47,0,0,0,.9-.08l46.45-4.18a2.48,2.48,0,0,0,.27,0,5.63,5.63,0,0,0,3.49-2.2l6-6.84v31a6,6,0,0,0,5.84,6l52.33,5,.27,0a5.94,5.94,0,0,0,4.07-1.61l28.13-22.2a2.85,2.85,0,0,0,1.08-2.23V33A2.79,2.79,0,0,0,180.84,30.89ZM47.54,12.13,85.07,8.58,77.61,15.1l-7.17,6a5.7,5.7,0,0,0-.92.07L31.89,24.59ZM33.3,80a1,1,0,0,0-.24,0L24,31.55l45.7-4.35,9.12,48.65ZM93.11,41.89h0l0,0a6,6,0,0,0-3,5.16V63.7l-5.78,6.64-8.37-44.6a5.63,5.63,0,0,0-.41-1.3l5.77-5.05,10.64-9,5.48,29.19-4,2.1ZM148,108.6l-51.6-4.95-.27,0a.33.33,0,0,1-.33-.33V47.36l3.17.29h0l5.86.53h0l2,.18,2.8.25h0L148,52.1Zm1.84-62.34a5.81,5.81,0,0,0-1.11-.14l-43.58-4.18,21.07-11.16,43.52,4L159.16,41Zm26.34,40.66L154.53,104V52.12a6,6,0,0,0-.25-1.7L162,45.86l14.14-8Z"/></svg>