<svg id="Layer_1" data-name="Layer 1" xmlns="http://www.w3.org/2000/svg" viewBox="0 0 200 200"><defs><style>.cls-1,.cls-2{fill:#3d3d3c;}.cls-2{fill-rule:evenodd;}</style></defs><path class="cls-1" d="M59.21,187.92v-.06a10.9,10.9,0,0,1,11.18-11.09,11.06,11.06,0,0,1,8.46,3.3l-3,3.47a7.89,7.89,0,0,0-5.49-2.42c-3.61,0-6.22,3-6.22,6.67v.07c0,3.67,2.55,6.73,6.22,6.73,2.45,0,4-1,5.64-2.51l3,3a10.94,10.94,0,0,1-8.79,3.83A10.82,10.82,0,0,1,59.21,187.92Z"/><path class="cls-1" d="M81.21,187.92v-.06a11.4,11.4,0,0,1,22.79-.07v.07a11.4,11.4,0,0,1-22.79.06Zm17.86,0v-.06a6.52,6.52,0,0,0-6.5-6.74,6.41,6.41,0,0,0-6.43,6.67v.07a6.51,6.51,0,0,0,6.49,6.73A6.41,6.41,0,0,0,99.07,187.92Z"/><path class="cls-1" d="M108.2,177.13H118a8.54,8.54,0,0,1,6.25,2.18,6.7,6.7,0,0,1,1.84,4.9v.06a6.66,6.66,0,0,1-4.6,6.65l5.24,7.66h-5.51l-4.6-6.87h-3.7v6.87H108.2Zm9.49,10.42c2.3,0,3.62-1.23,3.62-3v-.07c0-2-1.41-3.06-3.71-3.06h-4.68v6.16Z"/><path class="cls-1" d="M130.35,177.13h4.35l10.05,13.21V177.13h4.65v21.45h-4L135,184.94v13.64h-4.65Z"/><path class="cls-2" d="M88.42,45.48c-.71-1.84-.92-3.7,1.19-5.32,1-.77,1.54-2.14,2.35-3.19,2.07-2.7,4.79-4,8.17-3.28,2.86.58,6.16,4.36,6.45,7.3.22,2.31-.18,4.39-2.61,5.6a23.29,23.29,0,0,0-4.06,2.7C94.81,53.34,90.43,52,88.42,45.48Z"/><path class="cls-2" d="M113.55,68.06c1.48,5.06.08,7.79-4.87,9.47-3.2,1.09-5.79-.07-7.24-3.18-.56-1.21-1.27-2.35-1.84-3.55-1.58-3.35-.61-5.73,2.9-7a15.74,15.74,0,0,1,3-.77C110.36,62.14,112.16,63.29,113.55,68.06Z"/><path class="cls-2" d="M106.44,95.75c-5.74,1.49-8.2,0-9.63-5.82a6.69,6.69,0,0,1,4.31-8,8.34,8.34,0,0,1,10.42,5.83C112.43,91.48,110.35,94.74,106.44,95.75Z"/><path class="cls-2" d="M91.46,68.06c-3.91,1.12-7.1-1-8.39-5.7-1-3.49,1.57-7,6-8.37,3.17-1,6.81,1.34,7.74,4.89C98,63.29,95.93,66.79,91.46,68.06Z"/><path class="cls-2" d="M114.3,52.43c1.18,4.64-.89,7.51-5.58,7.78a35.76,35.76,0,0,0-4.4.36c-2.72.49-4.15-1.19-5.32-3.12s-.06-3.77,1.41-5.05a32.58,32.58,0,0,1,5.73-4.11C109.35,46.55,113.35,48.69,114.3,52.43Z"/><path class="cls-2" d="M121.34,60.33c4.75-.59,7.35,1.82,7,6.51a36.24,36.24,0,0,0-.19,4.41c.15,2.77-1.7,4-3.76,4.89s-3.75-.41-4.84-2a32.65,32.65,0,0,1-3.36-6.2C114.9,64.51,117.52,60.81,121.34,60.33Z"/><path class="cls-2" d="M108.94,10.93a5.94,5.94,0,0,1,8,5.66,5.13,5.13,0,0,1-1.39,3c-1.05,1.23-2.47,2.13-3.59,3.31-1.47,1.57-2.91,1.38-4.2,0a19.4,19.4,0,0,1-1.89-3C102.58,14.84,103.31,12.74,108.94,10.93Z"/><path class="cls-2" d="M91.45,71.55a5.94,5.94,0,0,1,8,5.66,5.14,5.14,0,0,1-1.4,3c-1.05,1.23-2.47,2.13-3.58,3.32-1.48,1.56-2.91,1.37-4.21,0a20.62,20.62,0,0,1-1.89-3C85.09,75.46,85.81,73.36,91.45,71.55Z"/><path class="cls-2" d="M96.75,18.66c3.2-1,4.75-.24,6.76,3.19,1.34,2.29,1.2,3.25-1.49,5.62a16.1,16.1,0,0,1-4.73,3.05,4.56,4.56,0,0,1-5.49-1.77A4.65,4.65,0,0,1,91.49,23,8.4,8.4,0,0,1,96.75,18.66Z"/><path class="cls-2" d="M112.69,85.06c-1.15-3.14-.5-4.73,2.81-6.93,2.21-1.47,3.18-1.37,5.7,1.17a16.39,16.39,0,0,1,3.31,4.56A4.56,4.56,0,0,1,123,89.44a4.65,4.65,0,0,1-5.7.63A8.42,8.42,0,0,1,112.69,85.06Z"/><path class="cls-2" d="M90.14,31.14a7.08,7.08,0,0,1-1.86,6.93c-1.65,1.68-5.86,2.59-7.46,1.26A7.45,7.45,0,0,1,78.3,35c-.5-4.12,4.13-8.21,8.14-7.15C87.87,28.2,88.92,30,90.14,31.14Z"/><path class="cls-2" d="M92.62,16.93c-1.22-2.59-5.09-4-2.77-7.71,1.77-2.85,5.38-4.43,8-3.63a5.19,5.19,0,0,1,3.73,4.93C101.37,13.29,99.75,16,92.62,16.93Z"/><path class="cls-2" d="M118,54.89c.25-2.61.43-4.52.6-6.39,6.23-1.64,10.75,2,10.11,8.14-.28,2.64-1.85,3.5-4.2,2.18C122.3,57.6,120.19,56.23,118,54.89Z"/><path class="cls-2" d="M86.65,48c.78,2.45-1.31,6.07-4.06,7-2.24.78-5.23-.92-5.91-3.36s1.52-6.39,3.86-7.24C83.06,43.54,85.73,45.1,86.65,48Z"/><path class="cls-2" d="M110.74,99c-.47,3.6-.78,7-1.43,10.28a3.81,3.81,0,0,1-2.13,2.35c-1.4.51-2-.77-2.41-1.94a28.5,28.5,0,0,0-1.39-3.26c-1.09-2.06-1.82-4,0-6.11S106.41,98.06,110.74,99Z"/><path class="cls-2" d="M108.93,45.47c-.1-1.75-.21-3.35-.27-5-.08-2.12,1.25-3.29,3-4a3.81,3.81,0,0,1,4.74,1.4,7,7,0,0,1,1.11,6.35c-.59,2.27-2.46,3.12-4.8,2.42C111.44,46.34,110.19,45.89,108.93,45.47Z"/><path class="cls-2" d="M116.31,34.2l-2.7-8.62c.72-.64,1.66-1.51,2.65-2.32,2.27-1.85,3.54-1.85,5.29-.05,2.18,2.24,2.47,4.81.49,6.61C120.3,31.4,118.31,32.69,116.31,34.2Z"/><path class="cls-2" d="M107,36.24c-.86-2.26-4.65-2.68-3.35-6.05.76-2,4.26-3.63,6.33-3.15,3,.69,3.15,3.08,3.33,5.71Z"/><path class="cls-2" d="M100.16,2.68A5.43,5.43,0,0,1,106.93,1a4.35,4.35,0,0,1,3,3.92c.22,3.54-2.65,4.1-5,5.43C103.36,7.8,101.86,5.41,100.16,2.68Z"/><path class="cls-2" d="M83.05,24.3c-.94-3.87-.24-6.54,2.39-7.93A4.13,4.13,0,0,1,89,16.25a4.09,4.09,0,0,1,1.08,3.46C89.47,23.13,87.21,24.51,83.05,24.3Z"/><path class="cls-2" d="M118.55,35.69c1.67-1.33,3.09-2.61,5-1.31a4.75,4.75,0,0,1,2,5.09,4.26,4.26,0,0,1-4.74,3.6C120.09,40.63,119.36,38.28,118.55,35.69Z"/><path class="cls-2" d="M81.79,70.54c-1.94.88-3.63,1.78-5.19,0a4.74,4.74,0,0,1-.72-5.43,4.26,4.26,0,0,1,5.48-2.34C81.5,65.37,81.64,67.83,81.79,70.54Z"/><path class="cls-2" d="M108.1,118.88l-1.37-4.4C108.75,115.53,108.75,115.53,108.1,118.88Z"/><path class="cls-1" d="M132.09,80.56c-22.2,15-26,25.44-27.91,41.16-1.85-15.72-7.6-35.37-29.8-50.4,0,0-8.63,41.44,24.37,60.27a5.66,5.66,0,0,0-.12,1.17v2.1a5.69,5.69,0,0,0,11.38,0v-2.11a5.7,5.7,0,0,0-.15-1.25C138.69,115,132.09,80.56,132.09,80.56Z"/></svg>