<svg id="Layer_1" data-name="Layer 1" xmlns="http://www.w3.org/2000/svg" viewBox="0 0 200 200"><defs><style>.cls-1{fill:#3d3d3c;}</style></defs><path class="cls-1" d="M53.27,176.87h5.24l5.82,9.35,5.81-9.35h5.24V199H70.55V184.55L64.33,194H64.2L58,184.65V199H53.27Z"/><path class="cls-1" d="M80.69,176.87H97.37v4.33H85.53v4.49H96V190H85.53v4.64h12V199H80.69Z"/><path class="cls-1" d="M109.45,176.72h4.48L123.41,199h-5.09l-2-5H107l-2,5h-5Zm5.11,13-2.93-7.17-2.94,7.17Z"/><path class="cls-1" d="M129.13,181.36H122.4v-4.49h18.32v4.49H134V199h-4.86Z"/><path class="cls-1" d="M151.52,65c-7.82-8.83-19.61-12-33.5-14-9.71-1.44-18.85-5.7-24.56-8.83L77.15,24.47c1.75-4.26,2.76-12-3.25-18.06a14.89,14.89,0,0,0-25.21,7.85,14.89,14.89,0,0,0-9.81,24.51h0c5.6,6.48,13.37,6.07,17.75,4.67l17,18.37c2.61,6,5.81,14.94,6.45,24.22,1,14,3.43,25.78,11.38,34.5,13.56,14.85,39,13.92,54.93-.84S166,81.3,151.52,65ZM56.35,39c-.09,0-8.46,3.72-14.28-3h0A10.57,10.57,0,0,1,40.48,24.6a10.73,10.73,0,0,1,10.06-6.23h1.94l.16-1.94a10.71,10.71,0,0,1,7-9.54A10.55,10.55,0,0,1,70.9,9.37c6.21,6.28,2.07,14.15,1.9,14.47l-.73,1.33,12.48,13.5a8.35,8.35,0,0,0-.83,3.62c-5.78-.23-5.57,3.59-5.57,3.59s-3.79-.51-4,5.28c0,0-2.7-.21-4,.72L57.73,38.42Z"/></svg>